<?xml version="1.0" encoding="iso-8859-1"?>
<!-- Generator: Adobe Illustrator 19.0.0, SVG Export Plug-In . SVG Version: 6.00 Build 0)  -->
<svg version="1.1" id="Layer_1" xmlns="http://www.w3.org/2000/svg" xmlns:xlink="http://www.w3.org/1999/xlink" x="0px" y="0px"
	 viewBox="0 0 512 512" style="enable-background:new 0 0 512 512;" xml:space="preserve">
<g>
	<g>
		<g>
			<path d="M447.168,134.56c-0.535-1.288-1.318-2.459-2.304-3.445l-128-128c-2.003-1.988-4.709-3.107-7.531-3.115H74.667
				C68.776,0,64,4.776,64,10.667v490.667C64,507.224,68.776,512,74.667,512h362.667c5.891,0,10.667-4.776,10.667-10.667V138.667
				C447.997,137.256,447.714,135.86,447.168,134.56z M320,36.416L411.584,128H320V36.416z M426.667,490.667H85.333V21.333h213.333
				v117.333c0,5.891,4.776,10.667,10.667,10.667h117.333V490.667z"/>
			<path d="M233.664,213.365c-3.149,0.286-6.009,1.954-7.808,4.555l-76.523,110.613V170.667c0-5.891-4.776-10.667-10.667-10.667
				c-5.891,0-10.667,4.776-10.667,10.667V416c0,5.891,4.776,10.667,10.667,10.667h234.667c5.891,0,10.667-4.776,10.667-10.667
				s-4.776-10.667-10.667-10.667H352v-32c0-5.891-4.776-10.667-10.667-10.667s-10.667,4.776-10.667,10.667v32h-32v-74.667
				c0-5.891-4.776-10.667-10.667-10.667s-10.667,4.776-10.667,10.667v74.667h-32V288c0-5.891-4.776-10.667-10.667-10.667
				S224,282.109,224,288v117.333h-32v-42.667c0-5.891-4.776-10.667-10.667-10.667c-5.891,0-10.667,4.776-10.667,10.667v42.667
				h-21.333v-39.328l86.827-125.419l86.965,86.955c4.172,4.159,10.926,4.149,15.085-0.023c0.803-0.805,1.472-1.734,1.982-2.751
				l21.333-42.667c2.636-5.27,0.502-11.678-4.768-14.315s-11.678-0.502-14.315,4.768l-14.709,29.429l-85.536-85.536
				C239.969,214.177,236.829,213.042,233.664,213.365z"/>
		</g>
	</g>
</g>
<g>
</g>
<g>
</g>
<g>
</g>
<g>
</g>
<g>
</g>
<g>
</g>
<g>
</g>
<g>
</g>
<g>
</g>
<g>
</g>
<g>
</g>
<g>
</g>
<g>
</g>
<g>
</g>
<g>
</g>
</svg>
