<?xml version="1.0" encoding="iso-8859-1"?>
<!-- Generator: Adobe Illustrator 19.0.0, SVG Export Plug-In . SVG Version: 6.00 Build 0)  -->
<svg version="1.1" id="Layer_1" xmlns="http://www.w3.org/2000/svg" xmlns:xlink="http://www.w3.org/1999/xlink" x="0px" y="0px"
	 viewBox="0 0 511.999 511.999" style="enable-background:new 0 0 511.999 511.999;" xml:space="preserve">
<g>
	<g>
		<path d="M437.019,201.932c-29.932-29.932-65.975-51.527-105.31-63.646c12.994-9.801,21.411-25.363,21.411-42.857
			c0-29.589-24.072-53.66-53.66-53.66c-17.861,0-33.701,8.779-43.46,22.242c-9.759-13.462-25.599-22.242-43.46-22.242
			c-29.589,0-53.66,24.072-53.66,53.66c0,17.493,8.417,33.055,21.411,42.857c-39.336,12.119-75.378,33.716-105.31,63.647
			C26.628,250.285,0,314.573,0,382.953c0,48.125,39.153,87.277,87.277,87.277h337.446c48.125,0,87.277-39.153,87.277-87.278
			C512,314.573,485.372,250.285,437.019,201.932z M299.46,62.168c18.34,0,33.262,14.921,33.262,33.262S317.8,128.69,299.46,128.69
			s-33.261-14.919-33.261-33.261S281.12,62.168,299.46,62.168z M179.279,95.429c0-18.34,14.92-33.262,33.262-33.262
			c18.34,0,33.261,14.921,33.261,33.262s-14.92,33.261-33.261,33.261C194.2,128.69,179.279,113.77,179.279,95.429z M424.723,449.831
			H87.277c-36.876,0-66.878-30.002-66.878-66.879c0-129.91,105.69-235.601,235.602-235.601s235.602,105.69,235.602,235.602
			C491.602,419.829,461.6,449.831,424.723,449.831z"/>
	</g>
</g>
<g>
	<g>
		<path d="M263.729,287.638v-54.211c17.358,0.952,24.015,8.798,29.008,8.798c5.469,0,8.56-7.133,8.56-10.938
			c0-9.511-20.686-14.981-37.568-15.693v-6.657c0-2.615-3.09-4.993-6.182-4.993c-3.567,0-6.183,2.377-6.183,4.993v7.133
			c-21.399,1.901-43.987,12.363-43.987,42.323c0,30.434,22.826,38.28,43.987,45.652v63.246
			c-27.105-1.189-32.812-19.022-39.469-19.022c-4.518,0-8.798,6.183-8.798,10.938c0,9.987,18.546,26.393,48.267,26.869v7.845
			c0,2.615,2.615,4.994,6.183,4.994c3.09,0,6.182-2.377,6.182-4.994v-8.56c24.728-3.329,41.847-18.783,41.847-47.79
			C305.576,304.994,283.941,295.008,263.729,287.638z M252.317,283.597c-14.028-5.231-25.916-10.7-25.916-27.105
			c0-15.217,11.651-21.399,25.916-22.826V283.597z M262.778,366.814v-58.253c13.076,5.469,23.776,12.84,23.776,30.911
			C286.555,355.164,277.758,364.436,262.778,366.814z"/>
	</g>
</g>
<g>
	<g>
		<path d="M427.347,418.167h-54.676c-5.632,0-10.199,4.567-10.199,10.199c0,5.632,4.567,10.199,10.199,10.199h54.676
			c5.632,0,10.199-4.567,10.199-10.199C437.546,422.734,432.979,418.167,427.347,418.167z"/>
	</g>
</g>
<g>
	<g>
		<path d="M336.752,418.166h-8.412c-5.632,0-10.199,4.567-10.199,10.199c0,5.632,4.567,10.199,10.199,10.199h8.412
			c5.632,0,10.199-4.567,10.199-10.199C346.951,422.733,342.384,418.166,336.752,418.166z"/>
	</g>
</g>
<g>
</g>
<g>
</g>
<g>
</g>
<g>
</g>
<g>
</g>
<g>
</g>
<g>
</g>
<g>
</g>
<g>
</g>
<g>
</g>
<g>
</g>
<g>
</g>
<g>
</g>
<g>
</g>
<g>
</g>
</svg>
